<svg width="98" height="30" viewBox="0 0 98 30" fill="none" xmlns="http://www.w3.org/2000/svg">
<g clip-path="url(#clip0)">
<path d="M62.6532 0C59.9519 0 57.481 0.979167 55.5964 2.60417V0H51.8271V10.7708V28.125H55.5964V18.9583C57.5019 20.5833 59.9729 21.5625 62.6532 21.5625C68.6421 21.5625 73.5002 16.7292 73.5002 10.7708C73.5002 4.83333 68.6421 0 62.6532 0ZM62.6532 17.7917C58.7583 17.7917 55.5964 14.6458 55.5964 10.7708C55.5964 6.89583 58.7583 3.75 62.6532 3.75C66.5481 3.75 69.7101 6.89583 69.7101 10.7708C69.7101 14.6458 66.5481 17.7917 62.6532 17.7917Z" fill="#6FBE44"/>
<path d="M43.3462 0V2.60417C41.4406 0.979167 38.9697 0 36.2684 0C30.2795 0 25.4214 4.83333 25.4214 10.7917C25.4214 16.75 30.2795 21.5833 36.2684 21.5833C38.9697 21.5833 41.4406 20.6042 43.3462 18.9792V21.5833H47.1154V0H43.3462ZM36.2684 17.7917C32.3735 17.7917 29.2116 14.6458 29.2116 10.7708C29.2116 6.89583 32.3735 3.75 36.2684 3.75C40.1633 3.75 43.3252 6.89583 43.3252 10.7708C43.3252 14.6458 40.1633 17.7917 36.2684 17.7917Z" fill="#6FBE44"/>
<path d="M87.1532 0C81.1643 0 76.3062 4.83333 76.3062 10.7917C76.3062 16.75 81.1643 21.5833 87.1532 21.5833C93.1421 21.5833 98.0002 16.7292 98.0002 10.7917C98.0002 4.83333 93.1421 0 87.1532 0ZM87.1532 17.7917C83.2583 17.7917 80.0963 14.6458 80.0963 10.7708C80.0963 6.89583 83.2583 3.75 87.1532 3.75C91.048 3.75 94.21 6.89583 94.21 10.7708C94.21 14.6458 91.048 17.7917 87.1532 17.7917Z" fill="#6FBE44"/>
<path d="M21.6731 10.7917C21.6731 10.6042 21.6731 10.3958 21.6521 10.2083V0H17.8829V2.60417C15.9983 0.979167 13.5274 0 10.847 0C4.85812 0 0 4.83333 0 10.7917C0 16.75 4.85812 21.5833 10.847 21.5833C13.5483 21.5833 16.0192 20.6042 17.9248 18.9583V19.9583C17.9248 21.9792 17.3594 23.5625 16.2286 24.75C15.056 25.9583 13.5274 26.5417 11.4962 26.5417C8.35513 26.5417 6.21923 25.2292 4.98376 22.5208H0.942308C1.65427 24.875 2.9735 26.75 4.92094 28.0833C6.78462 29.3542 9.00427 30 11.5171 30C15.056 30 17.841 28.7083 19.7675 26.1667C20.5632 25.1458 21.1077 23.9167 21.3799 22.5417C21.4846 21.9792 21.5684 21.3333 21.6103 20.6458C21.6312 20.3958 21.6312 20.125 21.6521 18.75V11.3542C21.6731 11.1667 21.6731 10.9792 21.6731 10.7917ZM10.847 17.7917C6.95214 17.7917 3.79017 14.6458 3.79017 10.7708C3.79017 6.89583 6.95214 3.75 10.847 3.75C14.7419 3.75 17.9038 6.89583 17.9038 10.7708C17.8829 14.6458 14.7209 17.7917 10.847 17.7917Z" fill="#6FBE44"/>
</g>
<defs>
<clipPath id="clip0">
<rect width="98" height="30" fill="white"/>
</clipPath>
</defs>
</svg>
