<svg width="26" height="26" viewBox="0 0 26 26" fill="none" xmlns="http://www.w3.org/2000/svg">
<path d="M10.8333 23.5625C10.9709 24.0312 11.2567 24.4428 11.6477 24.7356C12.0388 25.0284 12.5142 25.1866 13.0027 25.1866C13.4912 25.1866 13.9666 25.0284 14.3577 24.7356C14.7488 24.4428 15.0345 24.0312 15.1721 23.5625" stroke="#6FBE44" stroke-width="1.5" stroke-linecap="round" stroke-linejoin="round"/>
<path d="M13 3.25V0.8125" stroke="#6FBE44" stroke-width="1.5" stroke-linecap="round" stroke-linejoin="round"/>
<path d="M13 3.25C15.1549 3.25 17.2215 4.10602 18.7452 5.62976C20.269 7.15349 21.125 9.22012 21.125 11.375C21.125 19.0082 22.75 20.3125 22.75 20.3125H3.25C3.25 20.3125 4.875 18.2368 4.875 11.375C4.875 9.22012 5.73102 7.15349 7.25476 5.62976C8.77849 4.10602 10.8451 3.25 13 3.25Z" fill="#6FBE44" stroke="#6FBE44" stroke-width="1.5" stroke-linecap="round" stroke-linejoin="round"/>
</svg>
