<svg width="26" height="26" viewBox="0 0 26 26" fill="none" xmlns="http://www.w3.org/2000/svg">
<path d="M24.375 0H1.625C0.727537 0 0 0.727537 0 1.625V24.375C0 25.2725 0.727537 26 1.625 26H24.375C25.2725 26 26 25.2725 26 24.375V1.625C26 0.727537 25.2725 0 24.375 0Z" fill="white"/>
<path d="M22.3768 18.2627C22.3559 17.9657 22.4706 17.6768 22.676 17.4612C24.2614 15.7973 25.1875 13.6574 25.1875 11.375C25.1875 5.85 19.7438 1.625 13 1.625C6.25625 1.625 0.8125 5.85 0.8125 11.375C0.8125 16.9 6.25625 21.3687 13 21.3687C14.1002 21.3687 15.1341 21.2363 16.1019 21.0313C16.3044 20.9884 16.5154 21.0047 16.7069 21.0833L21.2598 22.9511C21.9459 23.2326 22.6889 22.6955 22.6368 21.9557L22.3768 18.2627Z" stroke="#4D4D4D" stroke-width="1.5" stroke-miterlimit="10" stroke-linecap="round" stroke-linejoin="round"/>
</svg>
