<svg width="26" height="26" viewBox="0 0 26 26" fill="none" xmlns="http://www.w3.org/2000/svg">
<path d="M0.8125 0.8125V25.1875" stroke="#4D4D4D" stroke-width="1.5" stroke-linecap="round" stroke-linejoin="round"/>
<path d="M0.8125 2.4375H13.8125C14.2435 2.4375 14.6568 2.6087 14.9615 2.91345C15.2663 3.2182 15.4375 3.63152 15.4375 4.0625V17.0625H0.8125" stroke="#4D4D4D" stroke-width="1.5" stroke-linecap="round" stroke-linejoin="round"/>
<path d="M10.5625 21.9375C10.5625 20.6446 11.0761 19.4046 11.9904 18.4904C12.9046 17.5761 14.1446 17.0625 15.4375 17.0625" stroke="#4D4D4D" stroke-width="1.5" stroke-linecap="round" stroke-linejoin="round"/>
<path d="M15.4375 7.3125H24.375C24.5318 7.3125 24.6853 7.3579 24.8169 7.44322C24.9486 7.52854 25.0527 7.65013 25.1167 7.79331C25.1807 7.93649 25.2019 8.09514 25.1778 8.25011C25.1536 8.40509 25.0851 8.54976 24.9806 8.66667L20.6472 13.5471C20.3826 13.8446 20.2364 14.229 20.2364 14.6272C20.2364 15.0254 20.3826 15.4097 20.6472 15.7072L24.9806 20.5823C25.0845 20.6993 25.1524 20.8439 25.1762 20.9986C25.1999 21.1533 25.1784 21.3116 25.1143 21.4544C25.0503 21.5972 24.9463 21.7184 24.8149 21.8036C24.6836 21.8887 24.5304 21.9341 24.3739 21.9343H9.75C9.31902 21.9343 8.9057 21.763 8.60095 21.4583C8.2962 21.1536 8.125 20.7402 8.125 20.3093V17.0593" stroke="#4D4D4D" stroke-width="1.5" stroke-linecap="round" stroke-linejoin="round"/>
</svg>
