<svg width="26" height="26" viewBox="0 0 26 26" fill="none" xmlns="http://www.w3.org/2000/svg">
<path d="M8.125 13C10.593 13 12.5938 10.9993 12.5938 8.53125C12.5938 6.06323 10.593 4.0625 8.125 4.0625C5.65698 4.0625 3.65625 6.06323 3.65625 8.53125C3.65625 10.9993 5.65698 13 8.125 13Z" fill="#6FBE44" stroke="#6FBE44" stroke-width="1.5" stroke-linecap="round" stroke-linejoin="round"/>
<path d="M0.8125 21.9375C0.8125 19.9981 1.58292 18.1381 2.95428 16.7668C4.32564 15.3954 6.18561 14.625 8.125 14.625C10.0644 14.625 11.9244 15.3954 13.2957 16.7668C14.6671 18.1381 15.4375 19.9981 15.4375 21.9375" fill="#6FBE44"/>
<path d="M0.8125 21.9375C0.8125 19.9981 1.58292 18.1381 2.95428 16.7668C4.32564 15.3954 6.1856 14.625 8.125 14.625C10.0644 14.625 11.9244 15.3954 13.2957 16.7668C14.6671 18.1381 15.4375 19.9981 15.4375 21.9375H0.8125Z" stroke="#6FBE44" stroke-width="1.5" stroke-linecap="round" stroke-linejoin="round"/>
<path d="M19.2043 14.625C21.2235 14.625 22.8605 12.988 22.8605 10.9688C22.8605 8.94946 21.2235 7.3125 19.2043 7.3125C17.185 7.3125 15.548 8.94946 15.548 10.9688C15.548 12.988 17.185 14.625 19.2043 14.625Z" fill="#6FBE44" stroke="#6FBE44" stroke-width="1.5" stroke-linecap="round" stroke-linejoin="round"/>
<path d="M17.1307 16.3237C18.0354 15.9903 19.0072 15.8803 19.9635 16.0031C20.9199 16.1259 21.8324 16.4779 22.6234 17.0291C23.4145 17.5803 24.0607 18.3144 24.5071 19.169C24.9535 20.0236 25.187 20.9733 25.1875 21.9375" stroke="#6FBE44" stroke-width="1.5" stroke-linecap="round" stroke-linejoin="round"/>
<path d="M19.1407 15.2C18.1571 15.2002 17.1866 15.4415 16.3035 15.9053C16.2356 15.9409 16.1755 15.9912 16.1269 16.0531C16.0784 16.115 16.0424 16.1871 16.0214 16.2648C16.0004 16.3424 15.9948 16.424 16.0049 16.5041C16.015 16.5842 16.0407 16.6612 16.0803 16.7301C17.0186 18.363 17.8412 20.2427 17.8413 22.16C17.8413 22.3138 17.8984 22.4614 18 22.5701C18.1016 22.6789 18.2394 22.74 18.383 22.74H25.099C25.2427 22.74 25.3805 22.6789 25.4821 22.5701C25.5836 22.4614 25.6407 22.3138 25.6407 22.16C25.6407 20.3141 24.9559 18.5438 23.7369 17.2385C22.5179 15.9333 20.8646 15.2 19.1407 15.2Z" fill="#6FBE44"/>
<path d="M8.12499 13.5417C10.967 13.5417 13.2708 11.2378 13.2708 8.39583C13.2708 5.55387 10.967 3.25 8.12499 3.25C5.28302 3.25 2.97916 5.55387 2.97916 8.39583C2.97916 11.2378 5.28302 13.5417 8.12499 13.5417Z" fill="#6FBE44"/>
<path d="M16.25 22.2083C16.25 20.0535 15.394 17.9868 13.8702 16.4631C12.3465 14.9394 10.2799 14.0833 8.125 14.0833C5.97012 14.0833 3.90349 14.9394 2.37976 16.4631C0.856024 17.9868 0 20.0535 0 22.2083C0 22.352 0.0570683 22.4898 0.158651 22.5914C0.260233 22.6929 0.398008 22.75 0.541667 22.75H15.7083C15.852 22.75 15.9898 22.6929 16.0914 22.5914C16.1929 22.4898 16.25 22.352 16.25 22.2083Z" fill="#6FBE44"/>
</svg>
