<svg width="26" height="26" viewBox="0 0 26 26" fill="none" xmlns="http://www.w3.org/2000/svg">
<path d="M8.125 13C10.593 13 12.5938 10.9993 12.5938 8.53125C12.5938 6.06323 10.593 4.0625 8.125 4.0625C5.65698 4.0625 3.65625 6.06323 3.65625 8.53125C3.65625 10.9993 5.65698 13 8.125 13Z" stroke="#4D4D4D" stroke-width="1.5" stroke-linecap="round" stroke-linejoin="round"/>
<path d="M0.8125 21.9375C0.8125 19.9981 1.58292 18.1381 2.95428 16.7668C4.32564 15.3954 6.1856 14.625 8.125 14.625C10.0644 14.625 11.9244 15.3954 13.2957 16.7668C14.6671 18.1381 15.4375 19.9981 15.4375 21.9375" stroke="#4D4D4D" stroke-width="1.5" stroke-linecap="round" stroke-linejoin="round"/>
<path d="M19.2043 14.625C21.2235 14.625 22.8605 12.988 22.8605 10.9688C22.8605 8.94946 21.2235 7.3125 19.2043 7.3125C17.185 7.3125 15.548 8.94946 15.548 10.9688C15.548 12.988 17.185 14.625 19.2043 14.625Z" stroke="#4D4D4D" stroke-width="1.5" stroke-linecap="round" stroke-linejoin="round"/>
<path d="M17.1307 16.3237C18.0354 15.9902 19.0072 15.8803 19.9635 16.0031C20.9199 16.1259 21.8324 16.4779 22.6234 17.0291C23.4145 17.5803 24.0607 18.3144 24.5071 19.169C24.9536 20.0236 25.187 20.9733 25.1875 21.9375" stroke="#4D4D4D" stroke-width="1.5" stroke-linecap="round" stroke-linejoin="round"/>
</svg>
