<svg width="26" height="26" viewBox="0 0 26 26" fill="none" xmlns="http://www.w3.org/2000/svg">
<path d="M24.7737 9.69258L13 0.80925L1.21548 9.69258C0.971862 9.9174 0.825371 10.2283 0.807068 10.5592V24.1248C0.807925 24.4055 0.919826 24.6745 1.11834 24.873C1.31684 25.0715 1.58583 25.1834 1.86657 25.1842H8.93207V19.5C8.93207 18.4226 9.36008 17.3892 10.1219 16.6274C10.8838 15.8655 11.9171 15.4375 12.9946 15.4375C14.072 15.4375 15.1053 15.8655 15.8672 16.6274C16.6291 17.3892 17.0571 18.4226 17.0571 19.5V25.1875H24.1215C24.4023 25.1866 24.6714 25.0748 24.8701 24.8763C25.0688 24.6778 25.1809 24.4088 25.1821 24.128V10.5592C25.1633 10.2284 25.0169 9.91767 24.7737 9.69258Z" fill="#6FBE44" stroke="#6FBE44" stroke-width="1.5" stroke-linecap="round" stroke-linejoin="round"/>
</svg>
