<svg width="26" height="26" viewBox="0 0 26 26" fill="none" xmlns="http://www.w3.org/2000/svg">
<path fill-rule="evenodd" clip-rule="evenodd" d="M12.5486 0.210181C12.8159 0.00864188 13.1845 0.00872336 13.4518 0.21038L25.2254 9.09371C25.2455 9.10881 25.2647 9.12491 25.2831 9.14193C25.6689 9.49897 25.9012 9.9918 25.9309 10.5166C25.9317 10.5308 25.9321 10.5449 25.9321 10.5591V24.1278L25.9321 24.1309C25.9302 24.6097 25.739 25.0683 25.4002 25.4067C25.0615 25.7451 24.6027 25.9359 24.1238 25.9373L24.1215 25.9373H17.0571C16.6429 25.9373 16.3071 25.6015 16.3071 25.1873V19.4998C16.3071 18.6213 15.9581 17.7788 15.3369 17.1575C14.7157 16.5363 13.8732 16.1873 12.9946 16.1873C12.1161 16.1873 11.2736 16.5363 10.6523 17.1575C10.0311 17.7788 9.68213 18.6213 9.68213 19.4998V25.1841C9.68213 25.5983 9.34634 25.9341 8.93213 25.9341L1.86434 25.9341C1.38549 25.9326 0.926668 25.7417 0.588066 25.4031C0.249465 25.0645 0.0585945 24.6057 0.0571324 24.1269L0.0571289 24.1246V10.5591C0.0571289 10.5453 0.0575104 10.5315 0.0582729 10.5177C0.0873415 9.99199 0.319998 9.49829 0.706919 9.14124C0.725172 9.12439 0.744251 9.10847 0.764085 9.09351L12.5486 0.210181ZM1.70329 10.264C1.61925 10.3506 1.56753 10.4638 1.55713 10.5843V24.1231C1.55759 24.2054 1.5905 24.2843 1.64873 24.3425C1.70694 24.4007 1.78575 24.4336 1.86806 24.4341H8.18213V19.4998C8.18213 18.2235 8.68916 16.9994 9.59168 16.0969C10.4942 15.1944 11.7183 14.6873 12.9946 14.6873C14.271 14.6873 15.4951 15.1944 16.3976 16.0969C17.3001 16.9994 17.8071 18.2235 17.8071 19.4998V24.4373L24.1193 24.4373C24.1194 24.4373 24.1191 24.4373 24.1193 24.4373C24.2019 24.437 24.2816 24.404 24.3401 24.3455C24.3985 24.2872 24.4315 24.2083 24.4321 24.1258V10.5849C24.4215 10.464 24.3696 10.3506 24.2854 10.2635L12.9998 1.74846L1.70329 10.264Z" fill="#4D4D4D"/>
</svg>
