<svg width="26" height="26" viewBox="0 0 26 26" fill="none" xmlns="http://www.w3.org/2000/svg">
<path d="M25.1875 9.75V23.5625C25.1875 23.9935 25.0163 24.4068 24.7115 24.7115C24.4068 25.0163 23.9935 25.1875 23.5625 25.1875H2.4375C2.00652 25.1875 1.5932 25.0163 1.28845 24.7115C0.983705 24.4068 0.8125 23.9935 0.8125 23.5625V9.75" stroke="#4D4D4D" stroke-width="1.5" stroke-linecap="round" stroke-linejoin="round"/>
<path d="M25.1875 6.5H0.8125V2.4375C0.8125 2.00652 0.983705 1.5932 1.28845 1.28845C1.5932 0.983705 2.00652 0.8125 2.4375 0.8125H23.5625C23.9935 0.8125 24.4068 0.983705 24.7115 1.28845C25.0163 1.5932 25.1875 2.00652 25.1875 2.4375V6.5Z" stroke="#4D4D4D" stroke-width="1.5" stroke-linecap="round" stroke-linejoin="round"/>
<path d="M8.125 6.5L9.75 0.8125" stroke="#4D4D4D" stroke-width="1.5" stroke-linecap="round" stroke-linejoin="round"/>
<path d="M16.25 6.5L17.875 0.8125" stroke="#4D4D4D" stroke-width="1.5" stroke-linecap="round" stroke-linejoin="round"/>
<path d="M10.2787 20.215L10.6134 20.8862L10.6141 20.8858L10.2787 20.215ZM8.9375 19.3852H8.1875V19.3852L8.9375 19.3852ZM8.9375 13.1148L8.1875 13.1148V13.1148H8.9375ZM10.2787 12.285L10.6141 11.6142L10.6134 11.6138L10.2787 12.285ZM16.5501 15.4213L16.2146 16.0921L16.2151 16.0923L16.5501 15.4213ZM16.5501 17.0788L16.2151 16.4077L16.2146 16.408L16.5501 17.0788ZM9.94397 19.5438C9.91693 19.5573 9.8869 19.5637 9.85672 19.5623L9.78812 21.0607C10.0736 21.0738 10.3576 21.0137 10.6134 20.8862L9.94397 19.5438ZM9.85672 19.5623C9.82654 19.5609 9.79721 19.5518 9.77153 19.5359L8.98228 20.8115C9.22528 20.9619 9.50267 21.0476 9.78812 21.0607L9.85672 19.5623ZM9.77153 19.5359C9.74584 19.52 9.72463 19.4978 9.70993 19.4715L8.39962 20.2016C8.53872 20.4512 8.73928 20.6612 8.98228 20.8115L9.77153 19.5359ZM9.70993 19.4715C9.69522 19.4451 9.6875 19.4154 9.6875 19.3851L8.1875 19.3852C8.18751 19.671 8.26053 19.952 8.39962 20.2016L9.70993 19.4715ZM9.6875 19.3852V13.1148H8.1875V19.3852H9.6875ZM9.6875 13.1149C9.6875 13.0847 9.69522 13.055 9.70993 13.0286L8.39962 12.2984C8.26053 12.548 8.18751 12.8291 8.1875 13.1148L9.6875 13.1149ZM9.70993 13.0286C9.72463 13.0022 9.74584 12.98 9.77153 12.9641L8.98228 11.6885C8.73928 11.8389 8.53872 12.0488 8.39962 12.2984L9.70993 13.0286ZM9.77153 12.9641C9.79722 12.9482 9.82654 12.9391 9.85672 12.9377L9.78812 11.4393C9.50267 11.4524 9.22528 11.5381 8.98228 11.6885L9.77153 12.9641ZM9.85672 12.9377C9.8869 12.9363 9.91694 12.9427 9.94397 12.9562L10.6134 11.6138C10.3576 11.4863 10.0736 11.4262 9.78812 11.4393L9.85672 12.9377ZM9.94321 12.9558L16.2146 16.0921L16.8855 14.7505L10.6141 11.6142L9.94321 12.9558ZM16.2151 16.0923C16.2444 16.1069 16.2691 16.1294 16.2863 16.1573L17.562 15.3683C17.3982 15.1033 17.1637 14.8893 16.885 14.7502L16.2151 16.0923ZM16.2863 16.1573C16.3035 16.1852 16.3127 16.2173 16.3127 16.25H17.8127C17.8127 15.9385 17.7259 15.6332 17.562 15.3683L16.2863 16.1573ZM16.3127 16.25C16.3127 16.2828 16.3035 16.3149 16.2863 16.3427L17.562 17.1318C17.7259 16.8668 17.8127 16.5615 17.8127 16.25H16.3127ZM16.2863 16.3427C16.2691 16.3706 16.2444 16.3931 16.2151 16.4077L16.885 17.7498C17.1637 17.6107 17.3982 17.3967 17.562 17.1318L16.2863 16.3427ZM16.2146 16.408L9.94321 19.5442L10.6141 20.8858L16.8855 17.7496L16.2146 16.408Z" fill="#4D4D4D"/>
</svg>
