<svg width="26" height="26" viewBox="0 0 26 26" fill="none" xmlns="http://www.w3.org/2000/svg">
<g clip-path="url(#clip0)">
<path d="M25.1875 9.75V23.5625C25.1875 23.9935 25.0163 24.4068 24.7115 24.7115C24.4068 25.0163 23.9935 25.1875 23.5625 25.1875H2.4375C2.00652 25.1875 1.5932 25.0163 1.28845 24.7115C0.983705 24.4068 0.8125 23.9935 0.8125 23.5625V9.75" fill="#6FBE44"/>
<path d="M25.1875 9.75V23.5625C25.1875 23.9935 25.0163 24.4068 24.7115 24.7115C24.4068 25.0163 23.9935 25.1875 23.5625 25.1875H2.4375C2.00652 25.1875 1.5932 25.0163 1.28845 24.7115C0.983705 24.4068 0.8125 23.9935 0.8125 23.5625V9.75H25.1875Z" stroke="#6FBE44" stroke-width="1.5" stroke-linecap="round" stroke-linejoin="round"/>
<path d="M25.1875 6.5H0.8125V2.4375C0.8125 2.00652 0.983705 1.5932 1.28845 1.28845C1.5932 0.983705 2.00652 0.8125 2.4375 0.8125H23.5625C23.9935 0.8125 24.4068 0.983705 24.7115 1.28845C25.0163 1.5932 25.1875 2.00652 25.1875 2.4375V6.5Z" fill="#6FBE44" stroke="#6FBE44" stroke-width="1.5" stroke-linecap="round" stroke-linejoin="round"/>
<path d="M8 7L10 0.5" stroke="white" stroke-width="1.5" stroke-linecap="round" stroke-linejoin="round"/>
<path d="M15.2832 6.77944C15.1614 7.17533 15.3835 7.59502 15.7794 7.71683C16.1753 7.83865 16.595 7.61646 16.7168 7.22056L15.2832 6.77944ZM18.7168 0.720564C18.8386 0.324668 18.6165 -0.0950199 18.2206 -0.216834C17.8247 -0.338649 17.405 -0.116461 17.2832 0.279436L18.7168 0.720564ZM16.7168 7.22056L18.7168 0.720564L17.2832 0.279436L15.2832 6.77944L16.7168 7.22056Z" fill="white"/>
<path d="M10.2787 20.215C10.1373 20.2855 9.98024 20.3187 9.82242 20.3115C9.6646 20.3043 9.51125 20.2568 9.3769 20.1737C9.24256 20.0906 9.13167 19.9745 9.05477 19.8365C8.97787 19.6985 8.93751 19.5431 8.9375 19.3852V13.1148C8.93751 12.9568 8.97787 12.8015 9.05477 12.6635C9.13167 12.5255 9.24256 12.4094 9.3769 12.3263C9.51125 12.2432 9.6646 12.1957 9.82242 12.1885C9.98024 12.1813 10.1373 12.2145 10.2787 12.285L16.5501 15.4212C16.7041 15.4981 16.8336 15.6164 16.9242 15.7628C17.0147 15.9091 17.0627 16.0779 17.0627 16.25C17.0627 16.4221 17.0147 16.5908 16.9242 16.7372C16.8336 16.8836 16.7041 17.0019 16.5501 17.0787L10.2787 20.215Z" fill="white" stroke="white" stroke-width="1.5" stroke-linecap="round" stroke-linejoin="round"/>
</g>
<defs>
<clipPath id="clip0">
<rect width="26" height="26" fill="white"/>
</clipPath>
</defs>
</svg>
